<svg width="1280" height="832" viewBox="0 0 1280 832" fill="none" xmlns="http://www.w3.org/2000/svg">
<g clip-path="url(#clip0_388_54173)">
<rect width="1280" height="832" fill="white"/>
<rect width="1280" height="832" fill="#0D2726"/>
<path d="M957 323L1710.44 898.25H203.558L957 323Z" fill="#103130"/>
<path d="M502 448L1470.22 1023.25H-466.216L502 448Z" fill="#103130"/>
<path d="M119 607L590.984 852.25H-352.984L119 607Z" fill="#1B504E"/>
<path d="M586 564L1172.3 864H-0.299194L586 564Z" fill="#16403E"/>
<path d="M1088.5 473L1861.43 1065.5H315.572L1088.5 473Z" fill="#1B605D"/>
<path d="M899 455L1664.57 1030.25H133.434L899 455Z" fill="#1B504E"/>
<ellipse cx="126.5" cy="906" rx="222.5" ry="97" fill="#226B69"/>
<ellipse cx="354" cy="861" rx="267" ry="97" fill="#1B504E"/>
<ellipse cx="731.5" cy="869" rx="514.5" ry="158" fill="#0D2726"/>
<ellipse cx="889.5" cy="852" rx="459.5" ry="97" fill="#236562"/>
<ellipse cx="1172.5" cy="819" rx="222.5" ry="108" fill="#286866"/>
<ellipse cx="144.944" cy="146.724" rx="67.9395" ry="59.3448" fill="#143938"/>
<ellipse cx="248.49" cy="116.438" rx="92.9052" ry="63.4375" fill="#143938"/>
<ellipse cx="381.095" cy="136.901" rx="92.9052" ry="59.3448" fill="#143938"/>
<rect x="68" y="136.492" width="406" height="69.5766" fill="#0D2726"/>
<ellipse cx="6.66577" cy="322.078" rx="137.778" ry="94.0775" fill="#1B504E"/>
<ellipse cx="203.318" cy="352.425" rx="137.778" ry="88.008" fill="#1B504E"/>
<rect x="-261" y="351.818" width="602.096" height="103.182" fill="#0D2726"/>
<ellipse cx="665.19" cy="93.4809" rx="41.6673" ry="36.3962" fill="#1B504E"/>
<ellipse cx="728.695" cy="74.9062" rx="56.9788" ry="38.9062" fill="#1B504E"/>
<ellipse cx="810.021" cy="87.4566" rx="56.9788" ry="36.3962" fill="#1B504E"/>
<rect x="618" y="87.2057" width="249" height="42.6714" fill="#0D2726"/>
<ellipse cx="826" cy="218.5" rx="83" ry="72.5" fill="#1B504E"/>
<ellipse cx="952.5" cy="181.5" rx="113.5" ry="77.5" fill="#1B504E"/>
<ellipse cx="1114.5" cy="206.5" rx="113.5" ry="72.5" fill="#1B504E"/>
<rect x="732" y="206" width="496" height="85" fill="#0D2726"/>
</g>
<defs>
<clipPath id="clip0_388_54173">
<rect width="1280" height="832" fill="white"/>
</clipPath>
</defs>
</svg>
