<svg width="1280" height="832" viewBox="0 0 1280 832" fill="none" xmlns="http://www.w3.org/2000/svg">
<g clip-path="url(#clip0_417_54212)">
<rect width="1280" height="832" fill="#E25B26"/>
<ellipse cx="698" cy="648" rx="678" ry="603" fill="#F69322"/>
<path d="M504.5 254L903.305 834.5H105.695L504.5 254Z" fill="#38A4A0"/>
<path d="M831.5 487L1230.3 1067.5H432.695L831.5 487Z" fill="#38A4A0"/>
<path d="M836.261 489L888 940.388L333 1070L481.661 748.223L836.261 489Z" fill="#1B504E"/>
<path d="M1228 390L1710.38 871.5H745.624L1228 390Z" fill="#38A4A0"/>
<path d="M1227.88 390L1475 839.683L746 871L1227.88 390Z" fill="#1B504E"/>
<path d="M198 460L580.783 836.5H-184.783L198 460Z" fill="#38A4A0"/>
<path d="M504.5 254L637.5 834.5H105.695L504.5 254Z" fill="#1B504E"/>
<path d="M198 460L251.5 836.5H-184.783L198 460Z" fill="#1B504E"/>
</g>
<defs>
<clipPath id="clip0_417_54212">
<rect width="1280" height="832" fill="white"/>
</clipPath>
</defs>
</svg>
