<svg width="159" height="79" viewBox="0 0 159 79" fill="none" xmlns="http://www.w3.org/2000/svg">
<path d="M100.286 1.85436C101.086 0.890737 102.564 0.890737 103.364 1.85436L147.893 55.5081C148.975 56.8115 148.048 58.7854 146.354 58.7854H57.2954C55.6016 58.7854 54.6746 56.8115 55.7564 55.5081L100.286 1.85436Z" fill="#54200B"/>
<path d="M102 4L127 37L110.454 22L102 30.4V4Z" fill="#863312"/>
<path d="M53.5195 16.1189C54.3012 15.3342 55.5718 15.3342 56.3535 16.1189L99.1147 59.048C100.371 60.3091 99.4776 62.4595 97.6977 62.4595H12.1753C10.3954 62.4595 9.50217 60.3091 10.7583 59.048L53.5195 16.1189Z" fill="#863312"/>
<path d="M55 20L22 52L43.8408 37.4545L55 45.6V20Z" fill="#54200B"/>
</svg>
