<svg width="1280" height="92" viewBox="0 0 1280 92" fill="none" xmlns="http://www.w3.org/2000/svg">
<path d="M0 76.0313C2.37551 76.0313 5.78086 76.6204 7.96778 75.6777C9.68161 74.939 12.466 75.2686 13.9566 74.1121C16.9247 71.8093 21.0624 70.2354 24.1377 67.8495C26.7601 65.8149 31.2231 61.754 34.6833 61.9404C35.8805 62.0049 35.8124 63.5195 36.7663 63.7838C37.8274 64.0778 38.5932 64.6005 39.8389 64.6677C42.3966 64.8055 44.4966 65.2548 47.1036 64.6929C51.647 63.7137 56.3537 62.7214 60.7217 61.5111C62.4868 61.022 64.9012 60.1222 66.7887 60.1222C68.3244 60.1222 71.5132 59.9063 72.5432 58.6576C74.9091 55.7895 77.3047 52.0722 80.8235 50.1222C82.6245 49.1241 84.2936 47.5748 86.0051 46.2839C88.11 44.6961 90.823 43.6458 92.8012 41.9404C94.325 40.6268 97.2097 38.0952 99.3629 37.8495C101.183 37.6418 103.469 36.0567 103.581 34.2132C103.65 33.0816 103.683 29.0897 104.414 28.2031C105.873 26.4348 107.249 24.7119 109.44 23.5314C111.044 22.6673 113.679 21.2898 114.83 19.895C115.986 18.4936 118.273 17.4815 119.152 16.0314C120.524 13.7691 121.391 12.8611 121.391 10.1223C121.391 7.44152 121.567 3.09591 123.969 1.28394C125.494 0.133729 127.814 2.84959 129.594 2.84959C131.461 2.84959 134.25 3.89213 135.452 5.34959C138.151 8.62184 140.525 10.8489 145.295 10.5769C146.044 10.5341 147.26 8.86776 148.107 9.89504C148.789 10.7213 149.34 11.0912 150.45 11.0314C152.248 10.9345 153.042 7.84959 155.372 7.84959C159.578 7.84959 165.248 7.00524 167.323 11.0314C171.724 11.0314 174.445 15.5606 178.572 16.0314C181.321 16.3451 185.516 18.8736 187.711 20.5769C190.197 22.505 190.855 25.7746 194.273 26.5112C196.122 26.9096 197.506 28.2934 199.194 29.1122C200.705 29.8446 202.989 30.6116 204.246 31.5869C209.359 35.5542 216.68 36.3615 222.395 39.4405C225.152 40.9258 224.77 46.9169 228.045 47.8243C229.533 48.2367 230.828 48.7586 232.472 48.7586C233.748 48.7586 236.97 48.9756 237.992 49.7687C239.106 50.6329 240.248 51.1822 240.908 52.6223C241.829 54.6327 242.893 54.2605 244.658 55.0212C247.394 56.2008 253.153 55.1223 256.141 55.1223C257.712 55.1223 261.306 54.3957 262.364 55.6778C263.278 56.7861 262.777 59.0889 264.108 60.1222C267.266 62.5717 269.116 62.8495 273.248 62.8495C277.426 62.8495 281.715 63.7586 285.903 63.7586H298.323C305.634 63.7586 312.304 59.6677 319.648 59.6677M315.43 59.2131C322.262 59.2131 328.834 59.2818 335.558 60.097C338.919 60.5044 342.268 61.4858 345.661 61.4858C349.389 61.4858 352.674 59.2131 356.441 59.2131C359.504 59.2131 362.322 57.395 365.346 57.395C368.622 57.395 371.873 54.3889 374.954 54.2131C377.595 54.0625 381.021 51.8944 383.391 50.6778C389.378 47.6036 397.385 45.4092 404.378 47.496C409.336 48.9756 412.592 47.8901 415.939 43.7586C418.598 40.4767 423.356 38.3354 426.745 35.7788C429.519 33.6865 434.059 31.753 437.525 31.0061C441.031 30.2505 443.603 28.7586 447.367 28.7586C450.935 28.7586 452.524 31.2453 454.528 33.4051C455.646 34.6095 455.935 36.3862 457.21 37.6223C458.325 38.7039 459.818 40.2393 460.621 41.4859C462.695 44.7048 466.604 47.0625 470.203 48.4051C472.116 49.1187 474.801 50.0576 476.426 51.2838C477.497 52.0915 479.387 52.6835 479.942 53.7586M479.473 53.3041H490.487C493.184 53.3041 496.691 51.8111 499.158 50.6778C502.074 49.3381 504.8 47.7913 507.829 46.4859C510.339 45.404 514.657 45.3699 516.604 43.8596C517.096 43.4774 520.267 43.3041 520.952 43.3041C522.876 43.3041 524.508 43.1289 526.342 42.8748C529.793 42.3966 533.63 42.8495 537.122 42.8495C540.051 42.8495 543.386 43.5681 546.229 44.1809L546.261 44.1879C549.124 44.8049 552.827 44.2132 555.766 44.2132C559.968 44.2132 563.803 43.2358 567.821 42.3697C570.118 41.8747 572.36 40.8488 574.617 40.2233C576.917 39.5861 580.011 39 582.012 37.8496C588.431 34.1608 597.179 33.349 602.843 28.4051C604.082 27.3238 606.285 27.454 607.66 26.7132C608.913 26.038 611.84 25.1223 613.285 25.1223C616.209 25.1223 619.361 24.6678 622.424 24.6678C625.59 24.6678 626.834 25.5441 629.22 27.395C630.599 28.4647 632.534 32.8496 634.141 32.8496M633.673 32.395C642.642 32.395 650.473 35.5891 658.722 37.8748C659.85 38.1875 661.093 39.5417 662.263 39.6677C663.53 39.8043 666.115 41.1108 667.054 41.8395C669.925 44.0671 672.243 40.5768 674.683 40.5768C678.472 40.5768 680.536 39.207 683.588 42.1677C686.037 44.542 688.751 46.6404 691.791 47.9506C695.526 49.5607 698.509 47.282 701.633 45.6778C702.833 45.062 704.155 43.7586 705.617 43.7586H710.304C714.524 43.7586 715.545 46.8668 719.183 47.8748C722.171 48.7028 723.199 52.395 726.474 52.395C729.538 52.395 733.651 48.4612 734.884 52.6475L734.902 52.707C735.829 55.8557 736.551 58.3041 740.535 58.3041C744.069 58.3041 746.971 56.6694 750.377 56.4859C753.489 56.3182 756.738 56.0313 759.985 56.0313C763.274 56.0313 766.201 56.9404 769.359 56.9404C772.125 56.9404 775.195 58.8739 777.561 60.0212C780.361 61.3789 781.78 63.945 781.78 66.9404C784.758 68.4697 788.16 72 791.622 72.395C793.05 72.5578 794.557 72.8495 796.205 72.8495C799.491 72.8495 803.193 70.9513 806.152 69.6677C808.601 68.605 811.462 68.0559 814.015 67.294C816.325 66.6046 818.367 65.5542 820.785 65.0213C828.696 63.2777 837.039 60.1045 843.647 55.4758C848.434 52.1228 852.201 49.6677 858.176 49.6677C861.337 49.6677 864.389 51.0314 867.55 51.0314C870.121 51.0314 872.528 51.4859 875.049 51.4859C878.162 51.4859 882.51 50.8129 885.361 52.0415C889.039 53.6269 893.055 54.8042 896.974 55.9304C901.017 57.0923 905.88 58.6645 910.097 57.496C916.425 55.7427 922.103 51.9415 928.48 50.2233C933.364 48.9076 938.461 47.3909 943.01 45.1223C947.264 43.0006 952.64 40.1223 957.539 40.1223C961.229 40.1223 965.332 39.8201 968.319 42.395C970.952 44.6649 975.746 45.5768 979.099 45.5768C985.421 45.5768 992.223 48.5009 992.223 55.1223M990.817 51.4859C992.952 52.7042 994.545 55.005 996.623 56.4354C998.708 57.8703 1000.88 59.2016 1003 60.5768C1006.71 62.9729 1010.76 65.727 1015.19 66.5869C1021.32 67.7754 1027.2 69.2132 1033.47 69.2132C1035.13 69.2132 1036.57 68.9297 1038.15 68.7586C1039.93 68.5675 1041.57 67.1176 1043.31 66.9405C1045.77 66.6889 1049.12 65.0017 1051.75 66.1324C1054.63 67.3761 1056.75 69.8551 1059.71 71.1324C1062.47 72.318 1065.14 72.395 1068.15 72.395C1071.71 72.395 1075.01 73.3041 1078.46 73.3041C1081.85 73.3041 1085.38 75.3938 1088.77 75.5768C1091.85 75.7423 1094.15 78.1945 1097.31 78.3041C1101.14 78.4367 1106.56 77.1676 1109.5 80.0212C1112.03 82.4725 1115.33 84.0634 1117.83 86.4859C1119.57 88.1719 1122.32 90.4398 1124.86 90.5768C1130.95 90.9049 1137.02 92.1819 1142.1 87.7485C1144.13 85.9753 1147.43 85.8731 1149.7 84.7687C1152.24 83.5364 1155.31 83.7586 1158.14 83.7586M1157.2 85.1222C1166.12 85.264 1174.58 88.5537 1183.35 89.7687C1185.47 90.0631 1189.5 91.1138 1190.71 88.9858C1193.03 84.943 1193.35 80.022 1196.36 76.2586C1198.75 73.2836 1202.64 72.5569 1205.95 71.1323C1208.32 70.1101 1211.08 69.9468 1213.5 68.9859C1216.68 67.7242 1219.98 66.5457 1223.29 65.6778C1230.93 63.6741 1238.46 61.1246 1246.44 60.5515C1251.67 60.1757 1256.76 59.461 1262.09 59.6677C1264.09 59.7457 1264.05 60.5951 1265.24 58.5313C1267.22 55.0633 1267.11 52.8495 1271.56 52.8495C1273.04 52.8495 1274.3 53.7586 1275.55 53.7586H1280" stroke="#38A4A0" stroke-width="2" stroke-linecap="round"/>
</svg>
