<?xml version="1.0" encoding="utf-8"?>
<!-- Generator: Adobe Illustrator 15.1.0, SVG Export Plug-In . SVG Version: 6.00 Build 0)  -->
<!DOCTYPE svg PUBLIC "-//W3C//DTD SVG 1.1//EN" "http://www.w3.org/Graphics/SVG/1.1/DTD/svg11.dtd">
<svg version="1.1" id="Layer_1" xmlns="http://www.w3.org/2000/svg" xmlns:xlink="http://www.w3.org/1999/xlink" x="0px" y="0px"
	 width="612px" height="792px" viewBox="0 0 612 792" enable-background="new 0 0 612 792" xml:space="preserve">
<path fillRule="evenodd" clipRule="evenodd" stroke="" stroke-width="2.9999" stroke-linecap="round" stroke-linejoin="round" stroke-miterlimit="22.9256" d="
	M250.748,166.678L250.748,166.678c5.111,0,9.292,4.181,9.292,9.292v135.876c5.852-3.219,12.072-5.848,18.583-7.809V135.792
	c0-5.111,4.182-9.292,9.292-9.292h0c5.111,0,9.292,4.181,9.292,9.292v164.601c3.058-0.292,6.157-0.442,9.292-0.442
	s6.233,0.15,9.292,0.442V135.792c0-5.111,4.181-9.292,9.291-9.292h0.001c5.11,0,9.292,4.181,9.292,9.292v168.245
	c6.511,1.961,12.732,4.59,18.584,7.809V175.969c0-5.111,4.181-9.292,9.291-9.292h0.001c5.11,0,9.292,4.181,9.292,9.292v149.183
	c2.196,2.004,4.302,4.107,6.307,6.305h149.181c5.11,0,9.291,4.181,9.291,9.292v0.001c0,5.11-4.181,9.292-9.291,9.292h-135.88
	c3.219,5.851,5.845,12.073,7.806,18.583h168.251c5.111,0,9.292,4.181,9.292,9.292v0c0,5.11-4.181,9.292-9.292,9.292H402.603
	c0.292,3.058,0.446,6.157,0.446,9.292c0,3.135-0.154,6.233-0.446,9.292h164.605c5.111,0,9.292,4.181,9.292,9.291v0.001
	c0,5.11-4.181,9.292-9.292,9.292H398.957c-1.96,6.511-4.588,12.732-7.806,18.584h135.88c5.11,0,9.291,4.181,9.291,9.291v0.001
	c0,5.11-4.181,9.292-9.291,9.292H377.851c-2.005,2.197-4.11,4.301-6.307,6.305v149.183c0,5.11-4.182,9.291-9.292,9.291h-0.001
	c-5.11,0-9.291-4.181-9.291-9.291V481.154c-5.852,3.219-12.073,5.849-18.584,7.81v168.244c0,5.111-4.182,9.292-9.292,9.292h-0.001
	c-5.11,0-9.291-4.181-9.291-9.292V492.607c-3.059,0.292-6.157,0.441-9.292,0.441c-3.134,0-6.234-0.149-9.292-0.441v164.601
	c0,5.111-4.181,9.292-9.292,9.292h0c-5.11,0-9.292-4.181-9.292-9.292V488.964c-6.511-1.961-12.732-4.591-18.583-7.81v135.877
	c0,5.11-4.181,9.291-9.292,9.291h-0.001c-5.11,0-9.292-4.181-9.292-9.291V467.849c-2.197-2.004-4.302-4.107-6.307-6.305H85.969
	c-5.111,0-9.292-4.182-9.292-9.292v-0.001c0-5.11,4.181-9.291,9.292-9.291h135.88c-3.219-5.852-5.846-12.073-7.806-18.584H45.792
	c-5.111,0-9.292-4.182-9.292-9.292v-0.001c0-5.11,4.181-9.291,9.292-9.291h164.606c-0.292-3.059-0.447-6.157-0.447-9.292
	c0-3.135,0.154-6.234,0.447-9.292H45.792c-5.111,0-9.292-4.181-9.292-9.292v0c0-5.111,4.181-9.292,9.292-9.292h168.251
	c1.961-6.51,4.587-12.732,7.806-18.583H85.969c-5.111,0-9.292-4.182-9.292-9.292v-0.001c0-5.111,4.181-9.292,9.292-9.292H235.15
	c2.004-2.197,4.109-4.301,6.307-6.305V175.969C241.457,170.858,245.638,166.678,250.748,166.678L250.748,166.678z M306.5,321.631
	c41.349,0,74.869,33.521,74.869,74.869s-33.521,74.869-74.869,74.869s-74.869-33.521-74.869-74.869S265.151,321.631,306.5,321.631z"
	/>
</svg>
